<?xml version="1.0" encoding="iso-8859-1"?>
<!-- Generator: Adobe Illustrator 13.0.0, SVG Export Plug-In . SVG Version: 6.00 Build 14948)  -->
<!DOCTYPE svg PUBLIC "-//W3C//DTD SVG 1.1//EN" "http://www.w3.org/Graphics/SVG/1.1/DTD/svg11.dtd">
<svg version="1.1" id="Layer_1" xmlns="http://www.w3.org/2000/svg" xmlns:xlink="http://www.w3.org/1999/xlink" x="0px" y="0px"
	 width="100px" height="100px" viewBox="0 0 100 100" enable-background="new 0 0 100 100" xml:space="preserve">
<g>
	<path fill="#2F3C6C" d="M49.317,38.306c-6.19,4.236-12.358,8.514-18.508,12.801l-0.048,0.117
		c-3.471,2.125-6.659,4.679-10.121,6.812c0.23,1.256,0.578,2.484,0.899,3.723c4.595-3.105,9.156-6.26,13.665-9.474l0.096,0.021
		c4.608-3.288,9.334-6.412,13.926-9.708c6.433,4.309,12.7,8.874,19.138,13.17c6.334,4.465,12.744,8.83,19.108,13.266
		c0.434-1.125,0.877-2.241,1.32-3.357c-5.164-3.623-10.368-7.197-15.567-10.785C65.275,49.331,57.27,43.857,49.317,38.306z"/>
	<path fill="#2F3C6C" d="M69.146,44.526c-6.402-4.86-13.253-9.161-19.769-13.882c-9.899,6.646-19.629,13.534-29.445,20.289
		c0.038,1.387,0.083,2.767,0.134,4.148c9.808-6.65,19.468-13.509,29.264-20.167c6.472,4.562,13.021,9,19.507,13.548
		c6.949,4.77,13.856,9.6,20.811,14.368c0.27-1.255,0.5-2.519,0.682-3.796C83.254,54.213,76.334,49.161,69.146,44.526z"/>
	<path fill="#2F3C6C" d="M49.99,46.472c-0.748-0.803-1.542,0.162-2.194,0.531c-8.37,5.855-16.827,11.588-25.172,17.469
		c0.551,1.018,1.104,2.033,1.646,3.05c8.436-5.634,16.653-11.571,25.059-17.24c5.494,3.888,11.08,7.645,16.562,11.536
		c6.202,4.215,12.362,8.497,18.495,12.811c0.665-0.999,1.259-2.033,1.868-3.062c-5.938-4.074-11.847-8.183-17.767-12.274
		C62.335,55.003,56.149,50.755,49.99,46.472z"/>
	<radialGradient id="SVGID_1_" cx="13.3672" cy="12.9917" r="124.1755" gradientUnits="userSpaceOnUse">
		<stop  offset="0.1212" style="stop-color:#D7DD3F"/>
		<stop  offset="0.4545" style="stop-color:#9DC44D"/>
		<stop  offset="0.7455" style="stop-color:#51924B"/>
		<stop  offset="1" style="stop-color:#1E4324"/>
	</radialGradient>
	<path fill="url(#SVGID_1_)" d="M50.659,83.207c-10.321,0.577-20.685-4.513-26.64-12.932c-3.375-4.543-5.116-10.056-5.859-15.616
		c0.06-3.722,0.134-7.505,1.272-11.102c2.398-8.544,8.739-15.707,16.697-19.534c4.552-1.963,9.504-3.088,14.486-2.805
		c9.547,0.265,18.613,5.425,24.146,13.144c2.845-2.063,5.838-3.927,8.631-6.073C75.557,16.857,61.631,9.963,47.783,10.585
		c-8.166,0.187-16.054,3.136-22.804,7.64l0.017,0.235c-9.46,6.52-15.841,17.362-17.062,28.776C6.939,54.891,8.212,62.8,11.483,69.78
		C15.706,78.95,23.42,86.43,32.676,90.43c8.623,3.787,18.556,4.44,27.63,1.965c9.318-2.512,17.618-8.424,23.156-16.303
		c-2.937-1.984-5.799-4.088-8.783-5.999C69.254,77.851,60.132,82.894,50.659,83.207z"/>
	<path fill="#2F3C6C" d="M48.47,67.179c0.013-2.142,0.013-4.287-0.005-6.429c-2.167-0.026-4.331-0.026-6.493-0.005
		c-0.005,2.151,0,4.296,0,6.446C44.139,67.209,46.302,67.2,48.47,67.179z"/>
	<path fill="#2F3C6C" d="M56.641,60.745c-2.15-0.008-4.306-0.004-6.455-0.004c-0.013,2.155-0.013,4.313,0.008,6.468
		c2.146-0.018,4.296-0.014,6.442-0.018C56.648,65.041,56.648,62.896,56.641,60.745z"/>
	<path fill="#2F3C6C" d="M56.674,75.323c-0.033-2.146-0.033-4.283-0.038-6.425c-2.149,0-4.292,0.005-6.433-0.017
		c-0.017,2.158-0.03,4.309-0.035,6.463C52.335,75.414,54.508,75.428,56.674,75.323z"/>
	<path fill="#2F3C6C" d="M41.972,75.383c2.167,0.01,4.331,0.031,6.498-0.051c0-2.142,0-4.288,0-6.434
		c-2.163-0.017-4.317-0.014-6.472-0.014C41.967,71.058,41.958,73.216,41.972,75.383z"/>
</g>
</svg>
