<?xml version="1.0" encoding="utf-8"?>
<!-- Generator: Adobe Illustrator 16.0.0, SVG Export Plug-In . SVG Version: 6.00 Build 0)  -->
<!DOCTYPE svg PUBLIC "-//W3C//DTD SVG 1.1//EN" "http://www.w3.org/Graphics/SVG/1.1/DTD/svg11.dtd">
<svg version="1.1" id="Layer_1" xmlns="http://www.w3.org/2000/svg" xmlns:xlink="http://www.w3.org/1999/xlink" x="0px" y="0px"
	 width="100px" height="100px" viewBox="0 0 100 100" enable-background="new 0 0 100 100" xml:space="preserve">
<g>
	<radialGradient id="SVGID_1_" cx="73.2871" cy="51.3652" r="42.5546" gradientUnits="userSpaceOnUse">
		<stop  offset="0" style="stop-color:#FFFFFF"/>
		<stop  offset="1" style="stop-color:#231F20"/>
	</radialGradient>
	<polygon fill="url(#SVGID_1_)" points="54.786,51.629 63.038,37.597 91.171,37.644 81.765,21.307 52.684,21.307 39.938,43.707 
		36.349,43.707 31.522,51.629 36.349,59.548 39.938,59.548 52.684,81.945 81.765,81.945 91.171,65.613 63.038,65.654 	"/>
	<radialGradient id="SVGID_2_" cx="40.8086" cy="20.6104" r="100.4986" gradientUnits="userSpaceOnUse">
		<stop  offset="0" style="stop-color:#74BDE9"/>
		<stop  offset="0.2667" style="stop-color:#26A9E0"/>
		<stop  offset="0.3564" style="stop-color:#25A3DB"/>
		<stop  offset="0.4813" style="stop-color:#2191CF"/>
		<stop  offset="0.6182" style="stop-color:#1B75BB"/>
		<stop  offset="1" style="stop-color:#120742"/>
	</radialGradient>
	<polygon fill="url(#SVGID_2_)" points="27.857,51.629 45.318,21.307 26.83,21.307 8.778,51.629 26.242,81.945 45.318,81.945 	"/>
	<radialGradient id="SVGID_3_" cx="40.8096" cy="20.6113" r="100.4959" gradientUnits="userSpaceOnUse">
		<stop  offset="0" style="stop-color:#74BDE9"/>
		<stop  offset="0.2667" style="stop-color:#26A9E0"/>
		<stop  offset="0.3564" style="stop-color:#25A3DB"/>
		<stop  offset="0.4813" style="stop-color:#2191CF"/>
		<stop  offset="0.6182" style="stop-color:#1B75BB"/>
		<stop  offset="1" style="stop-color:#120742"/>
	</radialGradient>
	<polygon fill="url(#SVGID_3_)" points="66.232,63.201 59.549,51.629 66.232,40.052 79.596,40.052 86.278,51.629 79.596,63.201 	"/>
</g>
</svg>
